<svg width="216" height="216" viewBox="0 0 216 216" fill="none" xmlns="http://www.w3.org/2000/svg">
<rect width="216" height="216" fill="#001C22"/>
<g clip-path="url(#clip0)">
<path fill-rule="evenodd" clip-rule="evenodd" d="M90.5761 84.7314C91.3263 85.1735 91.1656 86.0711 90.8172 86.9687C90.4153 88.0271 89.8794 88.8845 89.9196 89.8089C89.9732 91.0548 90.7369 91.9658 91.8756 92.7161C95.7742 90.7601 94.1799 84.9859 90.5761 84.7314ZM129.656 84.7314C128.892 85.1735 129.066 86.0711 129.401 86.9687C129.803 88.0271 130.339 88.8845 130.299 89.8089C130.245 91.0548 129.482 91.9658 128.343 92.7161C124.458 90.7601 126.052 84.9859 129.656 84.7314ZM123.185 68.9897C122.582 68.3466 121.751 68.7083 120.948 69.2308C120.01 69.8471 119.273 70.5571 118.375 70.7179C117.156 70.9456 116.084 70.3964 115.12 69.4452C116.192 65.225 122.167 65.5198 123.185 68.9897ZM146.456 119.497C145.853 118.854 146.255 118.037 146.831 117.273C147.501 116.376 148.251 115.692 148.479 114.795C148.774 113.589 148.291 112.49 147.407 111.459C143.12 112.276 143.066 118.265 146.456 119.497ZM155.271 117.3C155.566 116.777 155.191 116.362 154.722 116C154.173 115.585 153.61 115.317 153.342 114.808C152.994 114.125 153.141 113.348 153.556 112.517C156.383 112.129 157.254 115.813 155.271 117.3ZM154.226 139.914C153.824 139.057 154.441 138.441 155.204 137.932C156.115 137.329 157.026 136.967 157.482 136.203C158.098 135.158 157.937 133.926 157.361 132.586C152.994 131.688 151.265 137.396 154.226 139.914ZM119.474 49.2958C120.278 49.4967 120.385 50.3542 120.318 51.2518C120.251 52.3102 119.996 53.2346 120.291 54.0652C120.68 55.1772 121.617 55.7934 122.85 56.1551C125.824 53.3015 122.81 48.5188 119.474 49.2958ZM164.368 106.555C163.604 106.408 163.189 107.091 162.894 107.882C162.532 108.819 162.385 109.704 161.809 110.293C161.045 111.084 160 111.244 158.808 111.07C157.388 107.48 161.836 104.599 164.368 106.555ZM143.401 58.647C142.745 58.2183 142.102 58.714 141.539 59.3303C140.856 60.0671 140.387 60.8308 139.65 61.1523C138.645 61.6078 137.614 61.3667 136.582 60.7504C136.582 56.9054 141.78 55.8872 143.401 58.647ZM166.056 125.07C165.909 124.32 165.131 124.186 164.301 124.199C163.323 124.213 162.452 124.4 161.702 124.092C160.697 123.677 160.161 122.779 159.893 121.627C162.653 119.015 166.927 122.029 166.056 125.07ZM141.418 93.3859C141.003 94.0424 140.213 93.8816 139.436 93.5601C138.511 93.185 137.761 92.6893 136.944 92.7027C135.845 92.7161 135.015 93.3725 134.331 94.3639C135.966 97.8338 141.11 96.5745 141.418 93.3859ZM142.195 79.8682C142.343 78.9304 141.485 78.4615 140.507 78.1265C139.355 77.738 138.27 77.5907 137.533 76.9208C136.528 76.0232 136.287 74.7638 136.448 73.3036C140.749 71.4145 144.46 76.693 142.195 79.8682ZM164.515 87.25C164.261 86.7811 163.711 86.8615 163.162 87.0491C162.519 87.2634 161.97 87.5716 161.42 87.5314C160.657 87.4778 160.121 86.9821 159.706 86.272C160.978 83.9409 164.448 85.0395 164.515 87.25ZM151.614 92.7965C151.078 93.3056 151.373 94.0022 151.815 94.6721C152.337 95.4625 152.927 96.0788 153.061 96.8424C153.248 97.874 152.779 98.7582 151.975 99.5754C148.425 98.6778 148.693 93.6539 151.614 92.7965ZM110.779 48.425C112.373 49.47 114.986 50.4613 115.039 52.7121C115.066 53.4891 114.584 54.3599 114.356 54.4939C114.061 54.6681 113.057 54.5877 112.387 54.159C110.565 53.0068 110.926 50.2738 110.779 48.425ZM135.631 79.3859C133.568 80.1763 130.902 81.9447 128.745 80.4844C128.008 79.9754 127.512 78.9572 127.539 78.6356C127.579 78.2337 128.316 77.3629 129.173 77.028C131.491 76.1036 133.809 78.2739 135.631 79.3859ZM158.728 86.9151C156.865 85.7361 154.601 83.472 152.203 84.4768C151.386 84.8251 150.689 85.7227 150.663 86.0443C150.622 86.4462 151.172 87.451 151.935 87.9467C154.025 89.3132 156.731 87.6385 158.728 86.9151ZM137.614 65.225C137.922 66.8059 138.873 68.9495 137.547 70.316C137.091 70.7849 136.287 71.0126 136.06 70.959C135.778 70.8921 135.229 70.2356 135.095 69.5925C134.733 67.7973 136.595 66.404 137.614 65.225ZM167.717 92.3678C165.922 92.7563 163.256 92.7429 162.412 94.7524C162.131 95.4357 162.251 96.3735 162.425 96.5879C162.626 96.8558 163.551 97.1238 164.301 96.963C166.337 96.5477 166.953 93.9754 167.717 92.3678ZM139.034 82.0117C138.096 83.2711 136.368 84.7581 136.957 86.5132C137.158 87.1161 137.761 87.6519 137.989 87.6921C138.27 87.7457 139.02 87.3974 139.409 86.8883C140.481 85.4682 139.436 83.472 139.034 82.0117ZM156.986 71.1332C157.375 73.0222 158.527 75.5811 156.959 77.2155C156.423 77.7782 155.472 78.0596 155.204 77.9926C154.869 77.8988 154.213 77.1351 154.039 76.3581C153.57 74.2414 155.78 72.5533 156.986 71.1332ZM119.139 91.095C121.256 91.095 124.257 90.452 125.677 92.4883C126.159 93.185 126.253 94.2701 126.119 94.5515C125.945 94.8864 124.98 95.4223 124.096 95.4223C121.711 95.4625 120.385 92.7027 119.139 91.095ZM126.414 63.6978C124.471 62.6796 122.019 60.6164 119.728 61.8222C118.938 62.2375 118.335 63.1887 118.322 63.5102C118.308 63.8987 118.951 64.8633 119.742 65.292C121.939 66.471 124.484 64.582 126.414 63.6978ZM160.764 88.9649C161.273 91.1084 162.68 93.9888 160.952 95.9314C160.362 96.6013 159.277 96.9496 158.969 96.8826C158.58 96.7888 157.803 95.9448 157.575 95.0606C156.959 92.6357 159.424 90.6261 160.764 88.9649ZM124.739 87.4778C123.734 85.7093 122.877 82.8959 120.492 82.6816C119.675 82.6012 118.724 83.0433 118.563 83.2845C118.362 83.5792 118.375 84.651 118.777 85.3744C119.889 87.384 122.81 87.1964 124.739 87.4778ZM145.17 76.5323C146.643 78.5553 149.376 80.9801 148.398 83.7802C148.063 84.7448 147.085 85.5888 146.724 85.6558C146.282 85.7361 145.089 85.1735 144.473 84.3428C142.772 82.0519 144.486 78.8634 145.17 76.5323ZM146.188 93.4931C144.728 93.6003 142.678 94.2166 141.593 92.8768C141.217 92.4213 141.097 91.6711 141.177 91.4701C141.271 91.229 141.914 90.8003 142.53 90.7467C144.178 90.6127 145.237 92.4481 146.188 93.4931ZM118.59 52.1762C119.193 53.824 120.572 55.9676 119.38 57.669C118.978 58.2451 118.148 58.6336 117.893 58.6068C117.585 58.58 116.888 57.9638 116.634 57.2939C115.924 55.4317 117.679 53.6097 118.59 52.1762ZM162.131 104.385C159.893 104.546 156.758 105.497 155.097 103.447C154.521 102.737 154.333 101.598 154.454 101.29C154.601 100.915 155.593 100.272 156.517 100.192C159.049 99.964 160.67 102.764 162.131 104.385ZM163.47 118.278C161.755 119.296 159.652 121.292 157.508 120.314C156.772 119.979 156.169 119.149 156.155 118.854C156.129 118.492 156.651 117.595 157.361 117.166C159.264 116 161.675 117.581 163.47 118.278ZM124.042 68.3734C124.149 70.0748 123.761 72.5399 125.476 73.5849C126.065 73.9466 126.949 73.96 127.164 73.8394C127.432 73.6921 127.807 72.8748 127.78 72.1782C127.686 70.249 125.395 69.3112 124.042 68.3734ZM147.434 123.195C148.907 122.337 151.279 121.574 151.44 119.577C151.493 118.881 151.118 118.09 150.904 117.956C150.649 117.782 149.752 117.809 149.135 118.157C147.461 119.095 147.648 121.56 147.434 123.195ZM128.463 58.848C126.99 58.4595 124.993 57.4413 123.627 58.6202C123.158 59.0221 122.89 59.7724 122.93 59.9867C122.984 60.2547 123.573 60.8174 124.176 60.9781C125.851 61.4336 127.284 59.759 128.463 58.848ZM140.548 62.6662C139.074 62.2777 137.091 61.2595 135.711 62.4384C135.242 62.8403 134.974 63.5906 135.015 63.8049C135.068 64.0729 135.658 64.6356 136.261 64.7963C137.949 65.2518 139.382 63.5638 140.548 62.6662ZM164.596 130.563C164.287 128.795 164.395 126.182 162.465 125.298C161.796 124.99 160.885 125.07 160.67 125.231C160.416 125.419 160.108 126.316 160.228 127.04C160.563 129.049 163.055 129.759 164.596 130.563ZM154.079 104.841C153.02 105.175 151.627 105.979 150.596 105.189C150.234 104.908 150.019 104.385 150.046 104.224C150.073 104.023 150.475 103.608 150.917 103.461C152.096 103.072 153.195 104.238 154.079 104.841ZM162.8 135.801C160.992 134.663 158.058 133.591 157.951 131.072C157.924 130.201 158.419 129.223 158.701 129.063C159.022 128.862 160.148 128.929 160.898 129.398C162.948 130.67 162.599 133.752 162.8 135.801ZM116.902 90.5993C117.598 89.1792 119.045 87.3706 118.134 85.7361C117.826 85.1735 117.116 84.7581 116.888 84.7581C116.607 84.7581 115.924 85.2404 115.629 85.8165C114.825 87.4242 116.232 89.2328 116.902 90.5993ZM131.062 52.0422C129.24 52.2164 126.588 51.9082 125.543 53.7972C125.181 54.4403 125.194 55.3915 125.328 55.6193C125.503 55.9006 126.387 56.2757 127.137 56.2087C129.2 56.0212 130.111 53.5427 131.062 52.0422ZM168.802 118.693C167.931 116.59 167.342 113.334 164.73 112.772C163.832 112.571 162.707 112.932 162.492 113.174C162.224 113.482 162.09 114.674 162.439 115.545C163.403 117.93 166.686 118.117 168.802 118.693ZM135.872 81.4624C135.832 83.6328 136.461 86.7275 134.345 88.1476C133.608 88.6299 132.496 88.7103 132.215 88.5629C131.866 88.3888 131.33 87.384 131.344 86.4864C131.357 84.0347 134.197 82.7218 135.872 81.4624ZM143.642 61.5944C141.968 63.0681 139.114 64.6356 139.409 67.248C139.516 68.1456 140.199 69.07 140.494 69.204C140.869 69.3514 142.008 69.1102 142.718 68.5074C144.634 66.8595 143.763 63.738 143.642 61.5944ZM137.48 112.37C136.796 110.561 136.368 107.775 134.157 107.225C133.394 107.038 132.429 107.319 132.241 107.52C132 107.775 131.866 108.779 132.148 109.53C132.898 111.579 135.684 111.82 137.48 112.37ZM155.378 145.635C156.49 144.335 158.5 142.822 157.977 140.852C157.803 140.182 157.174 139.553 156.932 139.486C156.638 139.405 155.794 139.727 155.325 140.263C154.052 141.736 155.043 144.014 155.378 145.635ZM142.959 96.7218C142.919 98.9458 143.575 102.148 141.378 103.608C140.628 104.117 139.476 104.184 139.181 104.037C138.819 103.849 138.284 102.818 138.284 101.893C138.31 99.3745 141.231 98.0214 142.959 96.7218ZM123.413 81.516C123.694 83.0969 124.444 83.74 125.342 84.0347C127.204 84.6376 129.066 83.3648 130.714 83.9811C128.303 78.9974 125.007 79.5734 123.413 81.516ZM150.904 80.6318C149.39 80.0691 148.894 79.2251 148.774 78.2873C148.506 76.3447 150.1 74.7504 149.778 73.0088C154.253 76.2643 153.101 79.3993 150.904 80.6318ZM134.345 60.6298C132.764 60.0805 132.215 59.2231 132.067 58.2451C131.746 56.2355 133.353 54.5341 132.992 52.7255C137.707 56.0212 136.595 59.3035 134.345 60.6298ZM145.773 110.655C145.371 111.62 144.821 111.928 144.205 111.981C142.946 112.115 141.941 111.043 140.802 111.218C143.026 108.404 145.022 109.208 145.773 110.655ZM153.195 141.656C152.297 141.669 151.882 142.018 151.654 142.487C151.158 143.451 151.694 144.577 151.212 145.421C154.132 144.55 154.106 142.701 153.195 141.656ZM147.367 88.6165C147.246 90.0232 147.715 90.7333 148.425 91.1888C149.859 92.1266 151.721 91.4701 152.98 92.3811C152.083 87.6117 149.162 87.3438 147.367 88.6165ZM131.129 107.332C131.612 108.19 131.518 108.779 131.21 109.275C130.567 110.293 129.2 110.414 128.664 111.352C127.847 108.069 129.616 107.051 131.129 107.332ZM154.065 128.728C154.548 129.585 154.454 130.175 154.146 130.67C153.503 131.688 152.136 131.809 151.6 132.747C150.783 129.451 152.565 128.433 154.065 128.728ZM130.768 65.9083C129.173 65.4528 128.597 64.6356 128.383 63.671C127.954 61.7016 129.455 59.9332 128.986 58.1781C133.849 61.1657 132.925 64.4748 130.768 65.9083ZM146 66.9265C144.982 66.2566 144.741 65.56 144.808 64.8499C144.929 63.3762 146.362 62.4518 146.416 61.1255C149.175 64.2604 147.809 66.3906 146 66.9265ZM128.718 68.6011C127.807 68.9763 127.231 68.8021 126.775 68.427C125.851 67.6633 125.891 66.2834 125.034 65.627C128.41 65.2384 129.2 67.1274 128.718 68.6011ZM117.022 52.846C116.058 52.6183 115.696 52.136 115.548 51.5733C115.254 50.4078 116.098 49.3226 115.79 48.291C118.75 49.9523 118.268 51.935 117.022 52.846ZM152.913 120.435C153.945 121.051 154.186 121.734 154.146 122.444C154.065 123.905 152.685 124.856 152.672 126.169C149.859 123.154 151.145 121.024 152.913 120.435ZM132.858 95.7572C131.732 96.7218 131.585 97.6061 131.772 98.4501C132.161 100.205 134.05 101.076 134.331 102.67C137.131 98.4367 135.135 96.119 132.858 95.7572ZM160.844 98.6778C160.697 100.433 161.286 101.317 162.157 101.88C163.939 103.045 166.27 102.228 167.824 103.367C166.712 97.4319 163.082 97.097 160.844 98.6778ZM123.734 96.7218C123.305 97.8338 122.689 98.1955 121.993 98.2759C120.572 98.4635 119.393 97.2845 118.121 97.4989C120.546 94.23 122.837 95.1008 123.734 96.7218ZM157.2 113.401C158.111 112.973 158.714 113.12 159.197 113.482C160.188 114.219 160.201 115.639 161.112 116.255C157.683 116.818 156.785 114.929 157.2 113.401ZM160.121 135.828C161.045 136.565 161.193 137.262 161.072 137.945C160.818 139.352 159.357 140.102 159.183 141.375C156.825 138.106 158.326 136.19 160.121 135.828ZM163.376 110.508C163.644 109.087 164.314 108.511 165.118 108.257C166.793 107.721 168.467 108.873 169.954 108.337C167.757 112.812 164.797 112.263 163.376 110.508ZM143.508 87.0223C142.477 87.1027 141.954 86.7543 141.633 86.2318C140.95 85.1735 141.445 83.8069 140.789 82.8825C144.285 83.5792 144.46 85.7227 143.508 87.0223ZM155.298 98.0348C154.36 97.5793 154.092 97.0032 154.065 96.3869C154.025 95.1142 155.151 94.1898 155.057 93.051C157.736 95.4357 156.785 97.3783 155.298 98.0348ZM162.707 92.1534C163.886 92.3678 164.515 92.0194 164.957 91.4701C165.855 90.3314 165.453 88.7103 166.31 87.7189C162.224 88.1074 161.769 90.5457 162.707 92.1534ZM114.075 71.16C114.892 70.6911 115.468 70.7715 115.937 71.0796C116.915 71.6959 117.049 73.0088 117.947 73.5179C114.785 74.3083 113.807 72.6069 114.075 71.16ZM132.188 74.4289C133.099 73.9064 133.742 74.0002 134.264 74.3351C135.35 75.0184 135.497 76.4921 136.502 77.0548C132.978 77.939 131.88 76.05 132.188 74.4289ZM157.388 78.3275C157.991 79.0108 158.527 79.1045 159.049 78.984C160.121 78.7294 160.643 77.5773 161.621 77.3897C158.996 75.7016 157.589 76.9342 157.388 78.3275ZM142.222 71.026C143.281 70.4098 144.031 70.5303 144.634 70.9189C145.893 71.7093 146.067 73.4241 147.246 74.0806C143.147 75.1122 141.874 72.9016 142.222 71.026ZM151.507 108.109C151.774 106.689 152.444 106.113 153.262 105.859C154.936 105.323 156.611 106.475 158.098 105.926C155.887 110.4 152.94 109.864 151.507 108.109ZM146.429 69.6461C147.3 71.5351 148.439 72.0978 149.671 72.1648C152.203 72.3122 154.106 70.1016 156.37 70.3294C151.721 64.9035 147.796 66.6987 146.429 69.6461ZM154.896 81.9849C155.74 80.3237 156.772 79.8548 157.87 79.828C160.134 79.7744 161.769 81.8108 163.805 81.6768C159.478 86.3926 156.021 84.6644 154.896 81.9849ZM119.059 78.3275C118.201 78.9036 117.585 78.85 117.049 78.5686C115.95 77.9792 115.709 76.5725 114.691 76.1036C118.04 74.9782 119.233 76.7332 119.059 78.3275ZM148.412 101.933C146.67 101.933 145.84 101.263 145.344 100.352C144.339 98.4769 145.357 96.2529 144.366 94.5917C150.167 96.2261 150.18 99.8568 148.412 101.933ZM120.599 77.8452C122.22 77.3897 122.823 76.5591 123.038 75.5811C123.48 73.5715 121.966 71.7629 122.448 69.9811C117.491 73.0088 118.415 76.3715 120.599 77.8452ZM156.49 122.699C154.923 123.382 154.441 124.293 154.36 125.298C154.186 127.375 155.954 128.982 155.713 130.844C160.268 127.133 158.875 123.878 156.49 122.699ZM142.356 105.216C150.113 103.045 153.087 97.3783 161.943 97.3783C155.017 98.5707 151.131 102.978 145.746 106.234C147.849 106.984 149.926 108.016 153.744 110.052C157.428 112.021 162.666 112.075 164.368 112.035C163.577 112.718 157.508 113.348 154.307 112.062C152.605 111.378 151.145 110.735 149.711 110.173C150.81 112.129 152.766 114.138 153.154 116.309C153.315 117.193 153.73 118.358 154.655 118.854C157.254 120.261 159.277 122.699 159.853 124.494C157.321 121.641 153.047 120.274 152.364 119.283C151.292 117.742 151.158 115.987 150.086 113.951C149.604 113.026 148.519 111.66 147.42 110.427C145.639 108.431 144.835 108.565 142.129 107.815C139.101 106.984 135.202 106.019 132.094 106.06C128.088 106.113 126.373 107.788 123.024 108.377C121.43 108.659 120.318 109.945 119.286 110.467C118.081 111.097 117.679 112.209 117.116 113.803C116.62 115.21 115.736 116.509 115.656 119.149C115.481 124.923 115.964 129.465 117.37 135.051C118.817 140.772 122.019 141.294 123.64 142.621C127.244 145.555 130.098 146.305 133.943 146.76C136.569 147.082 138.257 147.256 140.95 147.095C142.048 147.028 145.223 146.64 146.228 146.854C147.996 147.216 148.961 148.556 151.734 149.935C149.229 150.123 147.474 148.73 146.509 148.649C143.656 148.395 142.37 148.77 141.552 149.011C141.311 149.078 141.124 149.252 140.896 149.333C142.611 150.177 144.473 151.583 146.054 151.972C143.642 151.972 140.239 150.404 137.654 149.721C136.676 149.681 135.604 149.587 134.358 149.574C133.594 149.56 131.719 150.029 130.821 149.868C128.691 149.493 124.015 148.917 121.926 148.422C122.006 149.654 125.596 152.575 127.298 153.379C127.74 153.432 128.343 153.767 128.638 153.78C130.272 153.847 133.728 152.695 135.417 152.735C139.851 152.843 141.66 155.16 144.62 155.509C142.571 156.112 140.065 154.196 136.703 154.062C134.948 153.995 133.996 154.839 132.71 154.933C133.661 155.469 134.572 156.125 135.135 156.848C135.577 157.438 135.671 159.501 135.323 160.747C135.041 157.867 132.402 156.527 131.705 156.447C130.205 156.272 126.695 156.192 125.543 155.857C122.703 155.053 119.996 151.141 117.21 151.235C117.357 152.092 117.933 153.258 119.326 153.834C120.961 154.517 121.403 158.831 124.149 160.117C126.829 161.363 126.025 163.453 125.864 164.887C125.181 162.663 124.511 162.073 122.327 161.216C120.224 160.385 119.755 157.478 117.866 156.58C116.875 156.112 115.039 155.763 114.276 155.107C114.008 154.879 113.74 154.678 113.485 154.504C113.351 157.277 115.776 158.081 116.915 159.97C117.062 160.211 117.478 160.64 117.692 160.975C118.161 161.738 117.571 162.917 118.188 163.574C118.697 164.123 120.385 166.066 120.921 166.2C119.728 165.905 117.692 164.793 116.781 164.043C116.071 163.467 116.66 162.716 116.218 161.993C115.776 161.269 114.249 160.76 113.378 160.077C113.03 161.216 112.414 163.025 112.534 163.748C112.775 165.222 112.4 166.146 113.016 167.231C111.436 166.508 111.141 163.641 111.074 162.824C111.047 162.448 111.168 160.024 111.141 159.675C110.953 157.733 110.632 157.277 110.109 156.487C109.587 157.264 109.279 157.733 109.091 159.675C109.064 160.024 109.171 162.448 109.158 162.824C109.104 163.641 108.796 166.508 107.215 167.231C107.832 166.159 107.443 165.235 107.698 163.748C107.818 163.025 107.189 161.216 106.854 160.077C105.983 160.76 104.456 161.269 104.013 161.993C103.585 162.703 104.161 163.453 103.451 164.043C102.54 164.793 100.49 165.905 99.3111 166.2C99.847 166.066 101.535 164.123 102.044 163.574C102.66 162.904 102.084 161.738 102.54 160.975C102.741 160.64 103.169 160.211 103.317 159.97C104.456 158.081 106.88 157.277 106.747 154.504C106.492 154.678 106.224 154.879 105.956 155.107C105.179 155.763 103.357 156.112 102.366 156.58C100.477 157.478 100.008 160.399 97.9044 161.216C95.7206 162.073 95.0508 162.649 94.3675 164.887C94.1799 163.52 93.3761 161.43 96.0556 160.184C98.802 158.898 99.2441 154.584 100.879 153.901C102.272 153.325 102.835 152.159 102.995 151.302C100.209 151.208 97.5024 155.12 94.6622 155.924C93.4967 156.259 89.9866 156.339 88.4995 156.513C87.8029 156.594 85.1636 157.934 84.8823 160.814C84.534 159.555 84.6277 157.491 85.0699 156.915C85.6325 156.179 86.5301 155.535 87.4947 155C86.2086 154.892 85.2574 154.048 83.5024 154.129C80.1397 154.263 77.6344 156.179 75.5846 155.576C78.5454 155.227 80.354 152.91 84.7885 152.802C86.4766 152.762 89.933 153.914 91.5675 153.847C91.8622 153.834 92.4651 153.499 92.9072 153.446C94.5953 152.628 98.1991 149.721 98.2795 148.489C96.1895 148.984 91.5139 149.56 89.3838 149.935C88.4861 150.096 86.5971 149.627 85.8469 149.641C84.6143 149.654 83.5292 149.748 82.5512 149.788C79.9655 150.471 76.5626 152.039 74.1511 152.039C75.732 151.637 77.5942 150.244 79.3091 149.4C79.0813 149.306 78.8937 149.145 78.6526 149.078C77.8354 148.837 76.5492 148.462 73.6956 148.716C72.731 148.797 70.976 150.19 68.4707 150.002C71.244 148.636 72.1952 147.296 73.977 146.921C74.9952 146.707 78.1569 147.095 79.2555 147.162C81.9483 147.323 83.6364 147.149 86.2622 146.827C90.1072 146.372 92.9608 145.608 96.5646 142.688C98.1991 141.361 101.401 140.825 102.835 135.118C104.241 129.532 104.724 124.99 104.563 119.216C104.482 116.563 103.598 115.264 103.102 113.87C102.54 112.276 102.138 111.151 100.932 110.534C99.9005 109.998 98.7886 108.726 97.1943 108.444C93.8584 107.855 92.1302 106.18 88.1244 106.127C85.0297 106.086 81.1311 107.051 78.0899 107.882C75.3837 108.632 74.5799 108.498 72.798 110.494C71.6995 111.727 70.6277 113.107 70.132 114.018C69.0468 116.054 68.9262 117.809 67.8545 119.35C67.1712 120.341 62.8975 121.708 60.3654 124.561C60.9415 122.753 62.9645 120.314 65.5635 118.921C66.4879 118.425 66.9033 117.26 67.064 116.376C67.4391 114.205 69.4085 112.182 70.5071 110.24C69.0736 110.816 67.5999 111.459 65.9119 112.129C62.7099 113.415 56.641 112.785 55.8506 112.102C57.552 112.142 62.7903 112.088 66.4745 110.119C70.2927 108.083 72.3827 107.051 74.4727 106.301C69.087 103.045 65.2152 98.6242 58.2755 97.4453C67.131 97.4453 70.0918 103.099 77.8622 105.283C81.5196 104.519 84.8153 102.777 88.4995 102.71C88.7675 102.71 92.3445 103.367 91.5005 101.089C89.7589 96.3601 84.9359 91.2424 81.7072 91.1084C78.2909 90.9744 76.7502 90.4118 73.5349 88.6969C69.4621 86.5132 69.4353 83.1773 64.465 79.2385C72.2085 82.3601 68.6449 86.2586 78.2105 88.3486C79.5368 88.6433 83.9043 88.1878 86.7713 89.3534C89.6115 90.4921 96.4709 99.2405 98.7752 101.692C100.557 103.595 104.831 104.144 105.487 103.394C107.068 101.558 107.483 89.7151 106.304 87.4644C103.906 82.8691 101.508 82.1591 95.8278 79.9753C92.7598 78.7964 91.4737 75.3265 90.7637 74.7504C88.5129 72.915 86.0612 73.1964 83.4488 72.6739C78.5454 71.6825 77.6344 69.2308 74.2047 69.2308C78.7062 68.6279 82.0689 71.8165 87.3876 71.8165C88.0842 71.8165 89.1694 72.0844 89.5043 71.9102C90.2412 71.5083 89.5713 70.3428 88.7407 69.5121C85.6459 66.4174 86.7445 64.5552 85.0297 60.9513C87.468 63.9657 86.8383 64.5418 88.7541 67.3284C90.4019 69.7265 91.1924 68.4538 91.4737 70.7715C91.822 73.6921 94.3005 77.4031 96.7924 78.0194C101.16 79.1045 102.205 79.5466 104.831 80.672C106.505 81.3821 107.912 81.8644 107.912 79.761C107.912 78.1131 108.689 75.4069 108.207 73.4643C107.791 71.8031 105.795 69.6461 104.817 67.9581C103.303 65.3188 103.129 64.2471 102.071 62.1839C100.959 60.0001 95.5866 59.692 95.734 54.4671C96.2833 56.2221 97.1273 57.2001 98.0115 57.7896C98.3599 58.0308 99.9943 58.7676 101.307 59.2767C102.875 59.893 103.156 60.0671 103.987 58.5265C104.603 57.3743 104.951 56.1418 106.211 55.4987C106.854 55.1772 107.43 55.0432 107.885 55.1906C106.077 55.914 105.702 57.5753 105.125 58.8748C104.657 59.9466 104.295 61.5274 104.509 62.7198C104.724 63.9121 105.42 65.2117 106.09 66.2298C106.505 66.8595 107.081 67.3686 107.684 67.8375C108.756 68.6413 109.185 69.2442 110.123 69.6327C111.074 69.2576 111.489 68.6547 112.574 67.8375C113.191 67.382 113.753 66.8729 114.169 66.2298C114.838 65.225 115.522 63.9121 115.749 62.7198C115.964 61.514 115.602 59.9466 115.133 58.8748C114.57 57.5886 114.182 55.914 112.387 55.1906C112.842 55.0432 113.405 55.1772 114.061 55.4987C115.334 56.1418 115.669 57.3743 116.285 58.5265C117.116 60.0671 117.397 59.893 118.965 59.2767C120.278 58.7676 121.912 58.0308 122.26 57.7896C123.131 57.2001 123.975 56.2221 124.538 54.4671C124.685 59.692 119.313 60.0001 118.201 62.1839C117.143 64.2471 116.969 65.3188 115.455 67.9581C114.49 69.6461 112.481 71.8031 112.065 73.4643C111.583 75.4069 112.36 78.0997 112.36 79.761C112.36 81.8644 113.767 81.3821 115.441 80.672C118.067 79.5466 119.112 79.1045 123.48 78.0194C125.971 77.4031 128.45 73.6787 128.798 70.7715C129.08 68.4538 129.87 69.7265 131.518 67.3284C133.42 64.5418 132.804 63.9657 135.242 60.9513C133.528 64.5552 134.626 66.4174 131.531 69.5121C130.701 70.3428 130.031 71.4949 130.768 71.9102C131.103 72.0978 132.188 71.8165 132.884 71.8165C138.203 71.8165 141.566 68.6279 146.067 69.2308C142.638 69.2308 141.727 71.6959 136.823 72.6739C134.211 73.1964 131.759 72.915 129.508 74.7504C128.798 75.3265 127.512 78.7964 124.431 79.9753C118.75 82.1591 116.352 82.8691 113.954 87.4644C112.775 89.7151 113.191 101.572 114.771 103.394C115.414 104.144 119.702 103.595 121.483 101.692C123.788 99.2405 130.661 90.4921 133.487 89.3534C136.354 88.2012 140.722 88.6433 142.035 88.3486C151.6 86.2586 148.037 82.3601 155.78 79.2385C150.81 83.1639 150.783 86.5132 146.71 88.6969C143.495 90.4252 141.941 90.9744 138.538 91.1084C135.309 91.229 130.486 96.3601 128.745 101.089C127.901 103.38 131.478 102.71 131.746 102.71C135.417 102.71 138.699 104.452 142.356 105.216ZM97.0335 68.9897C97.6364 68.3466 98.467 68.7083 99.2709 69.2308C100.209 69.8471 100.946 70.5571 101.843 70.7179C103.062 70.9456 104.134 70.3964 105.099 69.4452C104.04 65.225 98.0651 65.5198 97.0335 68.9897ZM73.7626 119.497C74.3655 118.854 73.9636 118.037 73.3875 117.273C72.7176 116.376 71.9674 115.692 71.7396 114.795C71.4449 113.589 71.9272 112.49 72.8114 111.459C77.0985 112.276 77.1655 118.265 73.7626 119.497ZM64.9473 117.3C64.6525 116.777 65.0277 116.362 65.4966 116C66.0458 115.585 66.6085 115.317 66.8765 114.808C67.2248 114.125 67.0774 113.348 66.6621 112.517C63.8487 112.129 62.9779 115.813 64.9473 117.3ZM66.0056 139.914C66.4076 139.057 65.7913 138.441 65.0277 137.932C64.1166 137.329 63.2056 136.967 62.7501 136.203C62.1339 135.158 62.2946 133.926 62.8707 132.586C67.2248 131.688 68.953 137.396 66.0056 139.914ZM100.758 49.2958C99.9541 49.4967 99.847 50.3542 99.9139 51.2518C99.9809 52.3102 100.235 53.2346 99.9407 54.0652C99.5522 55.1772 98.601 55.7934 97.3685 56.1551C94.3943 53.3015 97.4221 48.5188 100.758 49.2958ZM55.8506 106.555C56.6142 106.408 57.0295 107.091 57.3243 107.882C57.686 108.819 57.8334 109.704 58.4094 110.293C59.1731 111.084 60.2181 111.244 61.4104 111.07C62.8439 107.48 58.396 104.599 55.8506 106.555ZM76.8306 58.647C77.487 58.2183 78.1301 58.714 78.6928 59.3303C79.376 60.0671 79.8449 60.8308 80.5818 61.1523C81.5866 61.6078 82.6182 61.3667 83.6497 60.7504C83.6497 56.9054 78.4516 55.8872 76.8306 58.647ZM54.1625 125.07C54.3099 124.32 55.0869 124.186 55.9176 124.199C56.8956 124.213 57.7664 124.4 58.5166 124.092C59.5214 123.677 60.0573 122.779 60.3252 121.627C57.5654 119.015 53.3051 122.029 54.1625 125.07ZM78.8134 93.3859C79.2287 94.0424 80.0191 93.8816 80.7962 93.5601C81.7206 93.185 82.4708 92.6893 83.288 92.7027C84.3866 92.7161 85.2172 93.3725 85.9005 94.3639C84.266 97.8338 79.1215 96.5745 78.8134 93.3859ZM78.0229 79.8682C77.8756 78.9304 78.733 78.4615 79.711 78.1265C80.8631 77.738 81.9483 77.5907 82.6852 76.9208C83.6899 76.0232 83.9311 74.7638 83.7703 73.3036C79.4698 71.4145 75.7588 76.693 78.0229 79.8682ZM55.7032 87.25C55.9578 86.7811 56.507 86.8615 57.0563 87.0491C57.6994 87.2634 58.2487 87.5716 58.798 87.5314C59.5616 87.4778 60.0975 86.9821 60.5128 86.272C59.2401 83.9409 55.7702 85.0395 55.7032 87.25ZM68.6047 92.7965C69.1406 93.3056 68.8459 94.0022 68.4037 94.6721C67.8813 95.4625 67.2918 96.0788 67.1578 96.8424C66.9702 97.874 67.4391 98.7582 68.243 99.5754C71.8066 98.6778 71.5253 93.6539 68.6047 92.7965ZM109.386 48.425C107.791 49.47 105.192 50.4613 105.125 52.7121C105.112 53.4891 105.581 54.3599 105.822 54.4939C106.117 54.6681 107.122 54.5877 107.791 54.159C109.614 53.0068 109.238 50.2738 109.386 48.425ZM84.601 79.3859C86.6641 80.1763 89.3302 81.9447 91.4871 80.4844C92.224 79.9754 92.7196 78.9572 92.6929 78.6356C92.6527 78.2337 91.9158 77.3629 91.0584 77.028C88.7407 76.1036 86.423 78.2739 84.601 79.3859ZM61.4908 86.9151C63.353 85.7361 65.6171 83.472 68.0152 84.4768C68.8325 84.8251 69.5291 85.7227 69.5559 86.0443C69.5961 86.4462 69.0468 87.451 68.2832 87.9467C66.2066 89.3132 63.5004 87.6385 61.4908 86.9151ZM82.6048 65.225C82.2966 66.8059 81.3454 68.9495 82.6718 70.316C83.1273 70.7849 83.9311 71.0126 84.1588 70.959C84.4402 70.8921 84.9761 70.2356 85.1234 69.5925C85.4852 67.7973 83.623 66.404 82.6048 65.225ZM52.5013 92.3678C54.2965 92.7563 56.9759 92.7429 57.8066 94.7524C58.0879 95.4357 57.9673 96.3735 57.7932 96.5879C57.5922 96.8558 56.6678 97.1238 55.9176 96.963C53.8946 96.5477 53.2649 93.9754 52.5013 92.3678ZM81.1981 82.0117C82.1359 83.2711 83.8641 84.7581 83.2746 86.5132C83.0737 87.1161 82.4708 87.6519 82.243 87.6921C81.9617 87.7457 81.2115 87.3974 80.8229 86.8883C79.7512 85.4682 80.7962 83.472 81.1981 82.0117ZM63.2324 71.1332C62.8439 73.0222 61.6918 75.5811 63.2592 77.2155C63.7951 77.7782 64.7463 78.0596 65.0143 77.9926C65.3492 77.8988 66.0056 77.1351 66.1798 76.3581C66.6487 74.2414 64.4516 72.5533 63.2324 71.1332ZM101.08 91.095C98.9627 91.095 95.9618 90.452 94.5417 92.4883C94.0594 93.185 93.9656 94.2701 94.0996 94.5515C94.2737 94.8864 95.2383 95.4223 96.1225 95.4223C98.5206 95.4625 99.8336 92.7027 101.08 91.095ZM93.8048 63.6978C95.7474 62.6796 98.1991 60.6164 100.49 61.8222C101.28 62.2375 101.883 63.1887 101.897 63.5102C101.91 63.8987 101.267 64.8633 100.477 65.292C98.2795 66.471 95.734 64.582 93.8048 63.6978ZM59.4678 88.9649C58.9587 91.1084 57.552 93.9888 59.2803 95.9314C59.8697 96.6013 60.9549 96.9496 61.263 96.8826C61.6516 96.7888 62.4286 95.9448 62.6563 95.0606C63.2592 92.6357 60.7941 90.6261 59.4678 88.9649ZM95.4929 87.4778C96.4843 85.7093 97.3551 82.8959 99.7398 82.6816C100.557 82.6012 101.508 83.0433 101.669 83.2845C101.87 83.5792 101.857 84.651 101.455 85.3744C100.343 87.384 97.4221 87.1964 95.4929 87.4778ZM75.0621 76.5323C73.5885 78.5553 70.8554 80.9801 71.8334 83.7802C72.1684 84.7448 73.1464 85.5888 73.5081 85.6558C73.9502 85.7361 75.1425 85.1735 75.7588 84.3428C77.4602 82.0519 75.7454 78.8634 75.0621 76.5323ZM74.044 93.4931C75.5043 93.6003 77.554 94.2166 78.6392 92.8768C79.0143 92.4213 79.1349 91.6711 79.0545 91.4701C78.9607 91.229 78.3177 90.8003 77.7014 90.7467C76.0535 90.6127 74.9952 92.4481 74.044 93.4931ZM101.642 52.1762C101.039 53.824 99.6594 55.9676 100.852 57.669C101.254 58.2451 102.084 58.6336 102.339 58.6068C102.647 58.58 103.344 57.9638 103.598 57.2939C104.308 55.4317 102.54 53.6097 101.642 52.1762ZM58.1013 104.385C60.3386 104.546 63.4602 105.497 65.1348 103.447C65.7109 102.737 65.8985 101.598 65.7779 101.29C65.6305 100.915 64.6391 100.272 63.7147 100.192C61.1827 99.964 59.5616 102.764 58.1013 104.385ZM56.7616 118.278C58.4764 119.296 60.5798 121.292 62.7233 120.314C63.4602 119.979 64.0631 119.149 64.0765 118.854C64.1032 118.492 63.5808 117.595 62.8707 117.166C60.9549 116 58.5568 117.581 56.7616 118.278ZM96.1895 68.3734C96.0823 70.0748 96.4709 72.5399 94.756 73.5849C94.1665 73.9466 93.2823 73.96 93.068 73.8394C92.8 73.6921 92.4249 72.8748 92.4517 72.1782C92.5455 70.249 94.823 69.3112 96.1895 68.3734ZM72.798 123.195C71.3243 122.337 68.953 121.574 68.7923 119.577C68.7387 118.881 69.1138 118.09 69.3282 117.956C69.5827 117.782 70.4803 117.809 71.0966 118.157C72.7712 119.095 72.5703 121.56 72.798 123.195ZM91.7685 58.848C93.2421 58.4595 95.2249 57.4413 96.6048 58.6202C97.0737 59.0221 97.3417 59.7724 97.3015 59.9867C97.2479 60.2547 96.6584 60.8174 96.0556 60.9781C94.3809 61.4336 92.934 59.759 91.7685 58.848ZM79.6708 62.6662C81.1445 62.2777 83.1273 61.2595 84.5072 62.4384C84.9761 62.8403 85.244 63.5906 85.2038 63.8049C85.1502 64.0729 84.5608 64.6356 83.9579 64.7963C82.2832 65.2518 80.8497 63.5638 79.6708 62.6662ZM55.6228 130.563C55.931 128.795 55.8238 126.182 57.753 125.298C58.4228 124.99 59.3338 125.07 59.5482 125.231C59.8027 125.419 60.1109 126.316 59.9903 127.04C59.6554 129.049 57.1635 129.759 55.6228 130.563ZM66.153 104.841C67.2114 105.175 68.6047 105.979 69.6363 105.189C69.998 104.908 70.2124 104.385 70.1856 104.224C70.1588 104.023 69.7569 103.608 69.3148 103.461C68.1358 103.072 67.0238 104.238 66.153 104.841ZM57.4314 135.801C59.2401 134.663 62.1741 133.591 62.2812 131.072C62.308 130.201 61.8123 129.223 61.531 129.063C61.2095 128.862 60.0841 128.929 59.3338 129.398C57.2841 130.67 57.6324 133.752 57.4314 135.801ZM103.317 90.5993C102.62 89.1792 101.173 87.3706 102.084 85.7361C102.392 85.1735 103.102 84.7581 103.33 84.7581C103.612 84.7581 104.295 85.2404 104.59 85.8165C105.407 87.4242 104 89.2328 103.317 90.5993ZM89.1694 52.0422C90.9914 52.2164 93.6307 51.9082 94.689 53.7972C95.0508 54.4403 95.0374 55.3915 94.9034 55.6193C94.7292 55.9006 93.845 56.2757 93.0948 56.2087C91.0182 56.0212 90.1072 53.5427 89.1694 52.0422ZM51.4161 118.693C52.2869 116.59 52.8764 113.334 55.4889 112.772C56.3865 112.571 57.5118 112.932 57.7262 113.174C57.9941 113.482 58.1281 114.674 57.7798 115.545C56.8286 117.93 53.5463 118.117 51.4161 118.693ZM84.3464 81.4624C84.3866 83.6328 83.7569 86.7275 85.8737 88.1476C86.6105 88.6299 87.7225 88.7103 88.0038 88.5629C88.3522 88.3888 88.8747 87.384 88.8747 86.4864C88.8747 84.0347 86.0211 82.7218 84.3464 81.4624ZM76.5894 61.5944C78.2641 63.0681 81.1177 64.6356 80.8229 67.248C80.7158 68.1456 80.0325 69.07 79.7378 69.204C79.3627 69.3514 78.2239 69.1102 77.5138 68.5074C75.598 66.8595 76.4555 63.738 76.5894 61.5944ZM82.7521 112.37C83.4354 110.561 83.8507 107.775 86.0746 107.225C86.8383 107.038 87.8029 107.319 87.9904 107.52C88.2316 107.775 88.3656 108.779 88.0842 109.53C87.3206 111.579 84.5474 111.82 82.7521 112.37ZM64.8401 145.635C63.7281 144.335 61.7185 142.822 62.241 140.852C62.4152 140.182 63.0449 139.553 63.286 139.486C63.5808 139.405 64.4248 139.727 64.8937 140.263C66.1798 141.736 65.175 144.014 64.8401 145.635ZM77.2593 96.7218C77.2995 98.9458 76.643 102.148 78.8402 103.608C79.5904 104.117 80.7426 104.184 81.0373 104.037C81.399 103.849 81.9483 102.818 81.9349 101.893C81.9215 99.3745 78.9875 98.0214 77.2593 96.7218ZM96.8058 81.516C96.5245 83.0969 95.7876 83.74 94.8766 84.0347C93.0144 84.6376 91.1522 83.3648 89.5043 83.9811C91.9292 78.9974 95.2115 79.5734 96.8058 81.516ZM69.3282 80.6318C70.842 80.0691 71.3377 79.2251 71.4583 78.2873C71.7262 76.3447 70.132 74.7504 70.4535 73.0088C65.9789 76.2643 67.131 79.3993 69.3282 80.6318ZM85.8871 60.6298C87.4679 60.0805 88.0172 59.2231 88.1646 58.2451C88.4861 56.2355 86.8785 54.5341 87.2402 52.7255C82.511 56.0212 83.6364 59.3035 85.8871 60.6298ZM74.4593 110.655C74.8612 111.62 75.4105 111.928 76.0267 111.981C77.2861 112.115 78.2909 111.043 79.4296 111.218C77.2057 108.404 75.2095 109.208 74.4593 110.655ZM67.0372 141.656C67.9348 141.669 68.3502 142.018 68.5913 142.487C69.087 143.451 68.5511 144.577 69.0334 145.421C66.086 144.55 66.1128 142.701 67.0372 141.656ZM72.8516 88.6165C72.9722 90.0232 72.5033 90.7333 71.7932 91.1888C70.3597 92.1266 68.4975 91.4701 67.2382 92.3811C68.1492 87.6117 71.0698 87.3438 72.8516 88.6165ZM89.1024 107.332C88.6201 108.19 88.7139 108.779 89.022 109.275C89.6651 110.293 91.0316 110.414 91.5675 111.352C92.3713 108.069 90.6029 107.051 89.1024 107.332ZM66.153 128.728C65.6707 129.585 65.7645 130.175 66.0726 130.67C66.7157 131.688 68.0822 131.809 68.6181 132.747C69.4353 129.451 67.6669 128.433 66.153 128.728ZM89.4507 65.9083C91.045 65.4528 91.6211 64.6356 91.8354 63.671C92.2641 61.7016 90.7637 59.9332 91.2326 58.1781C86.3694 61.1657 87.3072 64.4748 89.4507 65.9083ZM74.2315 66.9265C75.2497 66.2566 75.4909 65.56 75.4239 64.8499C75.3033 63.3762 73.8698 62.4518 73.8162 61.1255C71.043 64.2604 72.4095 66.3906 74.2315 66.9265ZM91.5005 68.6011C92.4115 68.9763 92.9876 68.8021 93.4431 68.427C94.3675 67.6633 94.3139 66.2834 95.1847 65.627C91.8086 65.2384 91.0316 67.1274 91.5005 68.6011ZM103.196 52.846C104.161 52.6183 104.523 52.136 104.67 51.5733C104.965 50.4078 104.121 49.3226 104.429 48.291C101.481 49.9523 101.95 51.935 103.196 52.846ZM67.3186 120.435C66.287 121.051 66.0458 121.734 66.086 122.444C66.1664 123.905 67.5463 124.856 67.5597 126.169C70.3597 123.154 69.087 121.024 67.3186 120.435ZM87.3608 95.7572C88.4861 96.7218 88.6335 97.6061 88.4459 98.4501C88.0574 100.205 86.1684 101.076 85.8871 102.67C83.0871 98.4367 85.0832 96.119 87.3608 95.7572ZM59.374 98.6778C59.5214 100.433 58.9319 101.317 58.0611 101.88C56.2659 103.045 53.9482 102.228 52.3941 103.367C53.5195 97.4319 57.1367 97.097 59.374 98.6778ZM96.4977 96.7218C96.9264 97.8338 97.5426 98.1955 98.2393 98.2759C99.6594 98.4635 100.838 97.2845 102.111 97.4989C99.6728 94.23 97.3819 95.1008 96.4977 96.7218ZM63.0315 113.401C62.1205 112.973 61.5176 113.12 61.0353 113.482C60.0439 114.219 60.0305 115.639 59.1195 116.255C62.5492 116.818 63.4468 114.929 63.0315 113.401ZM60.0975 135.828C59.1731 136.565 59.0257 137.262 59.1463 137.945C59.4008 139.352 60.8611 140.102 61.0353 141.375C63.4066 138.106 61.8927 136.19 60.0975 135.828ZM56.8554 110.508C56.5874 109.087 55.9176 108.511 55.1137 108.257C53.4391 107.721 51.7644 108.873 50.2773 108.337C52.4745 112.812 55.4353 112.263 56.8554 110.508ZM76.7234 87.0223C77.755 87.1027 78.2775 86.7543 78.599 86.2318C79.2823 85.1735 78.7866 83.8069 79.443 82.8825C75.9464 83.5792 75.7722 85.7227 76.7234 87.0223ZM64.9339 98.0348C65.8717 97.5793 66.1396 97.0032 66.1664 96.3869C66.2066 95.1142 65.0812 94.1898 65.175 93.051C62.4956 95.4357 63.4468 97.3783 64.9339 98.0348ZM57.5252 92.1534C56.3463 92.3678 55.7166 92.0194 55.2745 91.4701C54.3769 90.3314 54.7788 88.7103 53.9214 87.7189C58.0075 88.1074 58.4496 90.5457 57.5252 92.1534ZM106.157 71.16C105.34 70.6911 104.764 70.7715 104.295 71.0796C103.317 71.6959 103.196 73.0088 102.285 73.5179C105.447 74.3083 106.425 72.6069 106.157 71.16ZM88.044 74.4289C87.133 73.9064 86.49 74.0002 85.9675 74.3351C84.8823 75.0184 84.7349 76.4921 83.7301 77.0548C87.2402 77.939 88.3388 76.05 88.044 74.4289ZM62.8439 78.3275C62.241 79.0108 61.7051 79.1045 61.1827 78.984C60.1109 78.7294 59.5884 77.5773 58.6104 77.3897C61.2228 75.7016 62.643 76.9342 62.8439 78.3275ZM77.9961 71.026C76.9378 70.4098 76.1875 70.5303 75.5846 70.9189C74.3119 71.7093 74.1511 73.4241 72.9722 74.0806C77.0717 75.1122 78.3579 72.9016 77.9961 71.026ZM68.7119 108.109C68.4439 106.689 67.7741 106.113 66.9702 105.859C65.2956 105.323 63.6209 106.475 62.1339 105.926C64.331 110.4 67.2918 109.864 68.7119 108.109ZM73.7894 69.6461C72.9186 71.5351 71.7798 72.0978 70.5473 72.1648C68.0152 72.3122 66.1128 70.1016 63.8487 70.3294C68.5109 64.9035 72.4363 66.6987 73.7894 69.6461ZM65.3358 81.9849C64.4918 80.3237 63.4602 79.8548 62.3616 79.828C60.0975 79.7744 58.463 81.8108 56.4133 81.6768C60.7539 86.3926 64.2104 84.6644 65.3358 81.9849ZM101.173 78.3275C102.031 78.9036 102.647 78.85 103.183 78.5686C104.281 77.9792 104.523 76.5725 105.541 76.1036C102.191 74.9782 100.986 76.7332 101.173 78.3275ZM71.82 101.933C73.5617 101.933 74.3923 101.263 74.888 100.352C75.8928 98.4769 74.8746 96.2529 75.866 94.5917C70.065 96.2261 70.0516 99.8568 71.82 101.933ZM99.6192 77.8452C97.9981 77.3897 97.3953 76.5591 97.1809 75.5811C96.7388 73.5715 98.2527 71.7629 97.7704 69.9811C102.727 73.0088 101.803 76.3715 99.6192 77.8452ZM111.087 59.4107C111.57 60.9781 108.716 65.5064 112.923 66.5514C113.271 66.4308 113.901 65.56 114.008 64.7294C114.329 62.4384 112.494 60.804 111.087 59.4107ZM109.131 59.4107C108.649 60.9781 111.503 65.5064 107.296 66.5514C106.947 66.4308 106.318 65.56 106.211 64.7294C105.889 62.4384 107.738 60.804 109.131 59.4107ZM113.968 59.0623C113.204 59.4643 112.695 59.3571 112.28 59.0757C111.422 58.4863 111.355 57.2939 110.551 56.7982C113.432 56.1819 114.262 57.7628 113.968 59.0623ZM106.264 59.0623C107.028 59.4643 107.537 59.3571 107.952 59.0757C108.81 58.4863 108.877 57.2939 109.681 56.7982C106.8 56.1819 105.969 57.7628 106.264 59.0623ZM63.7415 122.699C65.309 123.382 65.7913 124.293 65.8717 125.298C66.0458 127.375 64.2774 128.982 64.5186 130.844C59.9501 127.133 61.3434 123.878 63.7415 122.699Z" fill="#F1F1F1"/>
</g>
<path d="M182.839 91.5096C182.839 91.5096 189.303 96.414 189.303 109.002C189.303 121.59 182.839 127.312 182.839 127.312" stroke="#F1F1F1" stroke-width="3.23214"/>
<path d="M187.688 83.5536C187.688 83.5536 197.384 90.6377 197.384 108.82C197.384 127.003 187.688 135.268 187.688 135.268" stroke="#F1F1F1" stroke-width="3.23214"/>
<path d="M34.1611 91.5096C34.1611 91.5096 27.6968 96.414 27.6968 109.002C27.6968 121.59 34.1611 127.312 34.1611 127.312" stroke="#F1F1F1" stroke-width="3.23214"/>
<path d="M29.3125 83.5536C29.3125 83.5536 19.6161 90.6377 19.6161 108.82C19.6161 127.003 29.3125 135.268 29.3125 135.268" stroke="#F1F1F1" stroke-width="3.23214"/>
<defs>
<clipPath id="clip0">
<rect width="122.821" height="119.589" fill="white" transform="translate(48.7051 48)"/>
</clipPath>
</defs>
</svg>
