<?xml version="1.0" encoding="UTF-8" standalone="no"?>
<svg
   xmlns:svg="http://www.w3.org/2000/svg"
   xmlns="http://www.w3.org/2000/svg"
   width="400"
   height="400"
   viewBox="0 0 400 400"
   version="1.1"
   id="svg3793"
   style="fill:none">
  <rect
     width="400"
     height="400"
     id="rect3758"
     x="0"
     y="0"
     style="fill:#98cfcc;stroke-width:0.78087181" />
  <path
     d="m 98.141172,169.41057 c 0.698,0.156 1.240999,0.68 1.395999,1.301 0.058,0.233 0.019,0.407 0,0.66 -2.143999,14.88 -7.951999,24.326 -19.905999,27.306 -9.47,2.361 -17.636,-1.951 -19.977,-11.344 -2.516,-10.091 1.544,-18.606 9.037,-24.267 -2.463,-1.612 -4.557,-4.058 -5.254,-6.852 -0.541,-2.174 -0.443,-4.095 -0.443,-4.754 -5.18,-0.935 -10.222,-4.295 -13.673,-8.546 -0.136,-0.214 -0.272,-0.427 -0.349,-0.738 -0.136,-0.543 0.039,-1.164 0.583,-1.629 0.213,-0.136 0.427,-0.272 0.66,-0.33 0.621,-0.155 1.242,0.02 1.707,0.564 3.645,4.368 6.38,5.747 11.404,7.38 1.441,-7.45 7.168,-13.247 14.542,-15.086 4.891,-1.219 9.042,0.219 10.01,4.1 1.354,6.094 -6.353,12.22 -13.882,14.097 -2.95,0.736 -5.414,0.773 -7.665,0.675 -0.02,0.912 0.077,1.959 0.425,3.357 0.6,2.406 2.675,4.445 5.041,5.668 1.669,-0.91 5.085,-2.422 6.482,-2.77 2.329,-0.581 5.045,0.061 5.587,2.235 0.639,2.561 -0.954,4.442 -3.593,5.101 -2.484,0.619 -5.2,0.307 -8.187,-0.762 -7.629,5.117 -11.185,13.672 -9.172,21.744 1.955,7.84 8.608,10.716 15.905,8.897 10.556,-2.632 15.393,-11.011 17.381,-24.534 0.097,-0.931 1.01,-1.571 1.941,-1.473 z m -31.497,-20.839 c 2.173,0.118 4.113,-0.036 6.52,-0.636 5.588,-1.394 12.188,-6.008 11.454,-9.947 -0.504,-2.018 -3.298,-2.311 -5.937,-1.653 -6.132,1.529 -10.889,6.59 -12.037,12.236 z m 9.886,13.86 c 1.281,0.175 2.484,0.04 3.551,-0.309 0.524,-0.213 0.719,-0.426 0.602,-0.562 -0.058,-0.233 -0.582,-0.349 -1.435,-0.137 -0.389,0.097 -1.378,0.426 -2.718,1.008 z m 37.665998,3.058 c 0.621,0.175 1.145,0.622 1.299,1.243 0.058,0.233 0.039,0.485 0.019,0.737 -2.083,10.826 -4.785,18.508 -11.926,20.288 -3.725999,0.929 -6.440998,-1.362 -7.369998,-5.088 -0.561,-2.251 -0.482,-5.239 -0.07,-11.855 0.567,-6.655 1.27,-13.756 1.915,-20.76 l 1.093999,-12.805 c 0.098,-0.932 0.932999,-1.552 1.844999,-1.532 0.931,0.098 1.629,0.913 1.531,1.844 l -1.094,12.806 c -0.626,6.751 -1.328,13.522 -1.933999,20.682 -0.392,5.704 -0.375,9.41 -0.027,10.807 0.522999,2.096 1.744999,3.028 3.296999,2.641 5.589,-1.393 7.709,-8.765 9.364,-17.67 0.175,-0.621 0.699,-1.164 1.32,-1.319 0.233,-0.058 0.485,-0.038 0.737,-0.019 z m 49.197,-10.699 c 0.058,0.233 0.02,0.407 0,0.989 -1.247,7.237 -3.135,17.849 -10.044,19.571 -3.803,0.949 -6.344,-1.304 -7.292,-5.107 -1.761,-7.064 1.893,-18.199 0.306,-24.564 -0.561,-2.251 -1.937,-3.804 -5.042,-3.03 -4.503,1.122 -8.022,12.801 -8.705,19.65 -0.039,0.504 -1.447,17.015 -1.408,16.84 -0.059,0.757 -0.583,1.3 -1.281,1.474 -1.165,0.29 -2.231,-0.68 -2.095,-1.786 0.02,-0.252 1.35,-16.744 1.388,-16.919 0.45,-5.141 0.743,-8.925 0.066,-11.641 -0.716,-2.872 -2.171,-4.076 -4.965,-3.38 -2.173,0.542 -3.883,3.607 -5.34,7.351 -0.875,2.444 -3.404,12.144 -3.56,13.502 l -1.543,16.297 c -0.078,1.009 -0.913,1.63 -1.825,1.61 -0.931,-0.098 -1.629,-0.913 -1.531,-1.845 1.172,-12.165 2.421,-24.349 3.593,-36.514 0.059,-0.756 0.583,-1.299 1.281,-1.473 1.165,-0.291 2.231,0.68 2.095,1.786 -0.137,0.776 -0.215,1.455 -0.254,2.289 1.593,-3.2 3.632,-5.605 6.271,-6.263 4.658,-1.161 7.896,1.247 8.922,5.361 1.361,-4.132 4.429,-8.69 8.078,-9.599 5.589,-1.394 8.09,1.363 9.116,5.477 1.858,7.452 -1.894,17.869 -0.229,24.545 0.561,2.251 1.511,3.086 3.141,2.679 3.804,-0.948 5.767,-6.302 7.52,-17.128 0.078,-0.679 0.68,-1.241 1.301,-1.396 0.776,-0.194 1.823,0.37 2.036,1.224 z"
     id="path3780"
     style="fill:#ffffff"/>
  <path
     d="m 230.07517,173.07657 c -1.286,8.401 -4.16,13.075 -8.973,14.275 -2.406,0.6 -4.327,0.502 -6.364,-0.722 -3.303,7.255 -7.439,12.491 -14.425,14.233 -8.927,2.225 -14.453,-3.405 -16.814,-12.875 -1.665,-6.676 -1.969,-16.164 -0.762,-23.226 -1.494,0.62 -2.872,1.046 -4.424,1.433 -8.539,2.129 -15.309,-0.553 -17.07,-7.616 -0.987,-3.959 -0.015,-7.005 1.966,-10.302 0.233,-0.388 0.583,-0.64 0.971,-0.737 0.466,-0.116 0.892,-0.057 1.377,0.234 0.388,0.233 0.64,0.582 0.737,0.971 0.116,0.465 0.058,0.892 -0.175,1.28 -1.69,2.812 -2.332,4.869 -1.616,7.741 1.297,5.201 6.787,6.717 12.997,5.169 2.096,-0.522 4.056,-1.258 6.055,-2.169 2.101,-9.099 6.298,-17.73 13.594,-19.55 2.251,-0.561 4.075,0.139 4.636,2.39 1.626,6.52 -7.81,15.634 -15.263,19.471 -1.712,8.012 -1.524,17.034 0.237,24.098 1.897,7.607 5.677,12.189 12.741,10.428 6.055,-1.51 10.308,-7.27 12.562,-13.439 -1.298,-1.902 -2.15,-4.988 -1.897,-7.277 0.059,-0.757 0.545,-1.455 1.321,-1.648 1.087,-0.271 2.056,0.641 2.075,1.708 -0.039,0.835 0.076,1.63 0.173,2.348 2.82,-9.855 3.739,-22.039 1.436,-31.276 -1.703,-6.831 -5.134,-11.665 -11.266,-10.136 -1.242,0.31 -2.446,0.775 -4.057,1.589 -1.164,0.62 -2.231,-0.021 -2.444,-0.875 -0.213,-0.854 0.156,-1.688 0.875,-2.114 1.591,-0.892 3.105,-1.434 4.502,-1.782 8.616,-2.149 13.463,3.733 15.67,12.583 2.632,10.556 1.342,25.554 -2.526,36.165 1.319,0.99 2.89,1.011 4.132,0.701 3.881,-0.968 5.572,-5.099 6.663,-11.638 0.078,-0.679 0.602,-1.222 1.223,-1.376 1.009,-0.252 2.309,0.661 2.133,1.941 z m -42.463,-14.559 c 5.279,-3.625 11.9,-9.811 11.067,-13.148 -0.154,-0.621 -0.639,-0.913 -1.26,-0.758 -4.735,1.181 -7.766,7.543 -9.807,13.906 z m 72.028,4.715 c 0.698,0.155 1.222,0.602 1.377,1.223 0.058,0.233 0.038,0.485 0.019,0.737 -2.356,13.037 -4.863,18.527 -10.141,19.843 -3.726,0.929 -6.267,-1.324 -7.215,-5.127 -1.819,-7.297 1.99,-17.811 0.307,-24.564 -0.562,-2.251 -2.016,-3.785 -5.043,-3.03 -4.735,1.181 -8.022,13.131 -8.861,20.348 l -1.601,16.724 c -0.079,1.009 -0.913,1.63 -1.825,1.61 -0.931,-0.098 -1.61,-0.836 -1.532,-1.845 1.25,-12.184 2.637,-27.453 3.593,-36.514 0.059,-0.756 0.583,-1.299 1.282,-1.473 1.164,-0.291 2.231,0.68 2.094,1.786 l -0.234,1.707 c 1.671,-2.89 3.709,-4.964 6.271,-5.603 5.589,-1.394 8.09,1.363 9.116,5.477 1.722,6.909 -1.797,18.587 -0.307,24.564 0.562,2.251 1.512,3.086 3.142,2.68 3.648,-0.91 5.417,-5.721 7.597,-17.148 0.156,-0.698 0.603,-1.222 1.223,-1.377 0.233,-0.058 0.486,-0.038 0.738,-0.018 z m 16.1,-4.015 c 0.621,0.175 1.144,0.622 1.299,1.243 0.058,0.233 0.039,0.485 0.019,0.737 -2.083,10.826 -4.785,18.507 -11.926,20.288 -3.726,0.929 -6.441,-1.362 -7.37,-5.088 -0.561,-2.251 -0.482,-5.239 -0.07,-11.855 0.567,-6.655 1.27,-13.756 1.915,-20.76 l 1.094,-12.805 c 0.098,-0.932 0.933,-1.552 1.845,-1.532 0.931,0.098 1.629,0.913 1.531,1.844 l -1.094,12.805 c -0.626,6.752 -1.328,13.523 -1.934,20.683 -0.392,5.704 -0.375,9.41 -0.027,10.807 0.523,2.096 1.745,3.028 3.297,2.641 5.589,-1.394 7.709,-8.765 9.364,-17.67 0.175,-0.621 0.699,-1.164 1.32,-1.319 0.233,-0.058 0.485,-0.038 0.737,-0.019 z m 3.551,-24.466 c -1.475,0.368 -3.007,-0.487 -3.375,-1.961 -0.367,-1.475 0.584,-2.949 2.059,-3.317 1.475,-0.368 2.93,0.506 3.297,1.981 0.368,1.475 -0.506,2.93 -1.981,3.297 z m 10.658,20.923 c 0.679,0.079 1.222,0.603 1.377,1.224 0.058,0.233 0.039,0.485 0.019,0.737 -1.636,9.312 -3.698,18.236 -10.218,19.862 -3.726,0.929 -6.48,-1.517 -7.215,-5.127 -1.277,-6.113 0.693,-21.692 1.902,-31.392 0.059,-0.757 0.583,-1.3 1.204,-1.455 1.009,-0.251 2.212,0.273 2.075,1.709 -2.246,23.068 -2.753,26.988 -1.921,30.325 0.562,2.251 1.512,3.086 3.142,2.68 4.813,-1.2 6.39,-10.086 7.675,-17.167 0.156,-0.698 0.68,-1.241 1.301,-1.396 0.233,-0.058 0.407,-0.019 0.659,0 z m 30.941,-7.714 c 0.698,0.156 1.222,0.602 1.377,1.223 0.058,0.233 0.038,0.486 0.018,0.738 -2.355,13.037 -4.862,18.526 -10.14,19.842 -3.726,0.929 -6.267,-1.323 -7.215,-5.126 -1.819,-7.297 1.99,-17.811 0.307,-24.564 -0.562,-2.251 -2.016,-3.785 -5.043,-3.03 -4.735,1.18 -8.022,13.13 -8.861,20.348 l -1.601,16.724 c -0.079,1.009 -0.913,1.629 -1.825,1.609 -0.932,-0.097 -1.61,-0.835 -1.532,-1.844 1.25,-12.184 2.637,-27.453 3.593,-36.514 0.059,-0.757 0.583,-1.3 1.282,-1.474 1.164,-0.29 2.231,0.681 2.094,1.787 l -0.234,1.707 c 1.671,-2.89 3.709,-4.965 6.271,-5.603 5.589,-1.394 8.09,1.363 9.116,5.477 1.722,6.908 -1.797,18.587 -0.307,24.564 0.561,2.251 1.512,3.086 3.142,2.679 3.648,-0.909 5.417,-5.72 7.597,-17.147 0.156,-0.698 0.602,-1.222 1.223,-1.377 0.233,-0.058 0.486,-0.038 0.738,-0.019 z m 24.639,-6.143 c 0.698,0.156 1.241,0.68 1.396,1.301 0.058,0.233 0.019,0.407 -10e-4,0.66 -2.258,12.435 -6.88,19.029 -14.72,20.984 -6.443,1.607 -11.389,-1.695 -12.82,-8.099 -2.012,-10.052 2.035,-28.21 11.195,-30.494 3.881,-0.968 7.101,0.373 8.03,4.099 2.052,8.228 -8.276,16.08 -16.369,20.324 -0.041,2.153 0.094,3.686 0.423,5.336 0.948,4.463 4.109,6.561 8.805,5.555 6.404,-1.432 10.25,-7.173 12.1,-18.27 0.195,-0.873 1.029,-1.494 1.961,-1.396 z m -22.976,4.739 c 5.939,-3.624 14.228,-9.731 12.796,-15.475 -0.523,-2.096 -2.25,-2.078 -3.957,-1.652 -5.356,1.335 -7.846,10.531 -8.839,17.127 z"
     id="path3782"
     style="fill:#ffffff" />
  <path
     d="m 178.5342,214.78228 c 1.548,5.55 0.574,12.554 -0.442,22.371 -1.073,9.915 -3.318,31.004 -2.118,35.817 0.871,3.493 3.761,4.833 6.789,4.079 0.854,-0.213 1.707,0.234 1.92,1.087 0.213,0.854 -0.312,1.727 -1.165,1.94 -5.356,1.335 -9.429,-1.442 -10.649,-6.332 -1.393,-5.589 1.046,-26.892 2.08,-36.961 0.996,-9.565 1.893,-15.89 0.557,-21.246 -1.277,-5.123 -4.206,-6.619 -8.786,-5.477 -5.666,1.413 -9.979,9.579 -12.253,16.329 -0.866,18.355 -1.062,21.537 -3.074,43.558 -0.059,0.756 -0.583,1.299 -1.282,1.474 -1.242,0.309 -2.153,-0.7 -2.094,-1.787 1.328,-13.523 2.443,-28.559 3.014,-41.481 0.118,-2.833 -0.055,-5.181 -0.519,-7.044 -0.987,-3.959 -3.178,-6.793 -6.671,-5.922 -6.443,1.606 -11.807,15.476 -15.577,25.486 l -1.371,19.305 c -0.94,13.756 -1.99,18.47 -7.114,19.747 -2.872,0.716 -4.656,-1.148 -5.333,-3.864 -1.006,-4.367 1.424,-12.146 6.029,-22.775 0.311,-0.738 4.393,-12.804 4.471,-13.153 l 1.449,-19.984 c -5.282,6.264 -11.709,14.545 -20.791,16.809 -7.218998,1.8 -13.619998,-1.716 -14.720998,-9.439 -0.116,-0.795 0.505,-1.61 1.282,-1.803 1.009,-0.252 1.843,0.447 2.075,1.378 1.451,5.822 5.427999,7.881 10.550998,6.604 7.141,-1.78 13.84,-9.634 19.18,-15.995 1.146,-1.358 2.311,-2.637 3.204,-3.685 0.252,-0.31 0.543,-0.465 0.854,-0.542 1.475,-0.368 2.134,0.952 2.094,1.786 l -1.018,14.435 c 4.294,-9.563 7.636,-16.002 14.078,-17.609 5.046,-1.258 9.118,2.509 10.473,7.943 2.914,-6.169 6.876,-11.444 12.309,-12.798 6.598,-1.646 10.885,0.996 12.569,7.749 z m -54.997,44.961 0.45,-6.461 c -0.078,0.349 -0.078,0.349 -0.33,0.989 -4.432,12.318 -6.957,16.411 -5.873,21.087 0.193,0.777 0.62,1.165 1.163,1.029 3.183,-0.793 3.826,-5.158 4.59,-16.644 z m 87.096,-22.54 c 0.698,0.155 1.241,0.68 1.396,1.301 0.058,0.232 0.019,0.407 0,0.659 -2.259,12.436 -6.881,19.03 -14.721,20.985 -6.443,1.606 -11.388,-1.695 -12.82,-8.099 -2.012,-10.052 2.036,-28.211 11.195,-30.495 3.881,-0.967 7.101,0.374 8.03,4.1 2.052,8.228 -8.275,16.079 -16.369,20.323 -0.04,2.154 0.095,3.687 0.423,5.336 0.948,4.464 4.11,6.561 8.806,5.555 6.404,-1.432 10.249,-7.172 12.099,-18.27 0.195,-0.873 1.03,-1.493 1.961,-1.395 z m -22.976,4.739 c 5.939,-3.625 14.228,-9.731 12.796,-15.476 -0.522,-2.095 -2.249,-2.077 -3.957,-1.651 -5.356,1.335 -7.845,10.53 -8.839,17.127 z m 47.612,-10.882 c 0.699,0.156 1.242,0.68 1.396,1.301 0.059,0.233 0.02,0.407 0,0.66 -2.259,12.435 -6.881,19.03 -14.721,20.984 -6.442,1.607 -11.388,-1.695 -12.82,-8.099 -2.011,-10.052 2.036,-28.21 11.196,-30.494 3.881,-0.968 7.101,0.373 8.03,4.099 2.051,8.228 -8.276,16.08 -16.37,20.324 -0.04,2.154 0.095,3.686 0.424,5.336 0.948,4.463 4.109,6.561 8.805,5.555 6.404,-1.432 10.249,-7.173 12.1,-18.27 0.194,-0.873 1.029,-1.493 1.96,-1.396 z m -22.976,4.739 c 5.94,-3.624 14.229,-9.731 12.797,-15.475 -0.523,-2.096 -2.25,-2.078 -3.958,-1.652 -5.356,1.336 -7.845,10.531 -8.839,17.127 z m 39.229,-8.791 c 0.621,0.175 1.145,0.621 1.3,1.242 0.058,0.233 0.038,0.485 0.018,0.738 -2.082,10.825 -4.784,18.507 -11.926,20.288 -3.726,0.929 -6.441,-1.363 -7.37,-5.089 -0.716,-2.872 -0.459,-10.109 0.438,-17.093 l 1.191,-12.088 -4.89,1.22 c -0.931,0.232 -1.804,-0.292 -2.036,-1.224 -0.213,-0.854 0.292,-1.804 1.223,-2.036 l 5.977,-1.491 c 0.078,-0.349 1.153,-12.242 1.153,-12.572 0.059,-0.757 0.583,-1.3 1.281,-1.474 1.165,-0.29 2.231,0.681 2.095,1.787 0.117,-0.524 -0.86,9.778 -1.036,11.388 l 5.201,-1.296 c 0.932,-0.233 1.824,0.369 2.037,1.223 0.232,0.932 -0.293,1.805 -1.224,2.037 l -6.365,1.587 c -0.098,1.591 -0.528,5.491 -1.289,13.348 -0.938,9.798 -1.057,13.62 -0.495,15.871 0.522,2.096 1.744,3.028 3.296,2.641 5.589,-1.393 7.709,-8.765 9.364,-17.67 0.175,-0.621 0.699,-1.163 1.32,-1.318 0.233,-0.058 0.485,-0.039 0.737,-0.019 z m 31.128,-7.761 c 0.621,0.175 1.144,0.621 1.299,1.242 0.058,0.233 0.039,0.485 0.019,0.738 -2.162,12.824 -4.862,18.526 -10.063,19.823 -3.415,0.852 -5.646,-0.818 -6.963,-4.118 -1.458,3.744 -4.448,6.963 -7.941,7.834 l -0.077,0.019 c -4.891,1.22 -8.149,-0.936 -9.465,-6.215 -0.968,-3.881 -0.247,-8.925 2.386,-30.111 0.078,-0.679 0.602,-1.222 1.223,-1.377 1.32,-0.329 2.231,0.68 2.095,1.786 -2.771,23.942 -3.218,25.785 -2.444,28.89 0.794,3.182 2.675,4.444 5.469,3.748 3.183,-0.794 5.707,-4.226 6.953,-10.144 1.362,-6.111 2.183,-15.055 3.471,-27.084 0.078,-0.679 0.602,-1.222 1.223,-1.377 1.242,-0.309 2.309,0.662 2.172,1.767 -0.585,4.928 -1.015,9.488 -1.405,12.883 -0.956,8.731 -1.174,15.463 -0.651,17.559 0.561,2.251 1.511,3.086 3.141,2.68 3.726,-0.929 5.65,-6.108 7.597,-17.147 0.079,-0.68 0.603,-1.222 1.224,-1.377 0.233,-0.058 0.485,-0.039 0.737,-0.019 z m 29.448,-7.342 c 0.679,0.078 1.222,0.602 1.377,1.223 0.058,0.233 0.019,0.407 -10e-4,0.66 -0.198,6.15 -3.83,13.075 -9.186,14.41 -2.251,0.561 -4.405,0.191 -5.86,-0.683 -2.118,5.063 -5.302,9.155 -9.843,10.122 -2.989,0.58 -5.026,0.017 -6.402,-1.866 -1.074,10.573 -2.05,20.216 -2.246,22.738 -0.058,0.757 -0.583,1.3 -1.281,1.474 -1.165,0.29 -2.231,-0.68 -2.095,-1.786 l 2.637,-26.464 c 1.405,-13.213 2.791,-26.832 3.123,-29.471 l 0.156,-1.358 c 0.058,-0.757 0.583,-1.3 1.281,-1.474 1.165,-0.29 2.231,0.681 2.095,1.786 l -0.215,1.785 c 1.612,-2.793 3.709,-4.964 6.581,-5.681 4.89,-1.219 7.527,2.411 8.727,7.224 1.335,5.356 0.32,14.843 -1.429,19.732 1.183,0.777 2.638,0.991 4.035,0.642 4.114,-1.025 6.427,-6.961 6.585,-11.618 0.156,-0.698 0.603,-1.222 1.224,-1.376 0.232,-0.059 0.485,-0.039 0.737,-0.019 z m -17.194,4.122 c 1.087,-0.271 2.115,0.544 2.153,1.689 -0.059,0.757 0.038,1.475 0.115,2.115 1.071,-5.296 1.365,-10.729 0.397,-14.61 -0.812,-3.26 -2.053,-5.26 -4.382,-4.679 -6.365,1.587 -8.139,14.644 -9.289,23.258 -0.351,3.551 -0.643,4.695 -0.005,7.257 0.678,2.717 1.764,3.765 3.957,3.301 3.59,-0.813 6.211,-4.517 7.844,-9.212 -1.59,-2.077 -2.112,-5.162 -2.032,-7.49 -0.039,-0.815 0.544,-1.455 1.242,-1.629 z"
     id="path3784"
     style="fill:#ffffff" />
</svg>
