<?xml version="1.0" encoding="UTF-8" standalone="no"?>
<svg
   xmlns:svg="http://www.w3.org/2000/svg"
   xmlns="http://www.w3.org/2000/svg"
   width="127"
   height="127"
   viewBox="0 0 127 127">
  <rect width="127" height="127" x="0" y="0" style="fill:#202020" />
  <path
     d="m 102.15505,107.60077 c -1.1444,1.7464 -3.130305,2.6196 -5.477902,2.6196 -1.5098,-0.2338 -2.7299,-0.9659 -3.6603,-2.1964 -0.7646,-1.0327 -2.296,-4.1979 -4.5945,-9.495697 l -26.0032,-59.610699 -29.5,67.788696 c -1.0172,2.3427 -2.7762,3.5141 -5.2769,3.5141 -0.8054,0 -1.5894,-0.1704 -2.3524,-0.5112 -1.4835,-0.6388 -2.5006,-1.7037 -3.0516,-3.1945 -0.5935,-1.4908 -0.5722,-2.9816 0.064,-4.4724 l 34.8405,-79.992096 c 1.0173,-2.3427 2.7762,-3.514 5.277,-3.514 2.543,0 4.3232,1.1713 5.3405,3.514 l 34.840402,79.992096 c 0.8477,1.9167 0.6994,3.7696 -0.445,5.5585 z"
     style="fill:#ffffff;stroke-width:0.73938853" />
</svg>
